<svg xmlns="http://www.w3.org/2000/svg" width="640" height="1866" viewBox="0 0 640 1866" xmlns:c2pa="http://c2pa.org/manifest"><metadata><c2pa:manifest>AAAWgmp1bWIAAAAeanVtZGMycGEAEQAQgAAAqgA4m3EDYzJwYQAAABZcanVtYgAAAEdqdW1kYzJtYQARABCAAACqADibcQN1cm46YzJwYToxMTc1NGQ1Yy0yMGU4LTRkMDYtOTk5NC1mNTQyMDk3MjQ4Y2EAAAADl2p1bWIAAAApanVtZGMyYXMAEQAQgAAAqgA4m3EDYzJwYS5hc3NlcnRpb25zAAAAALxqdW1iAAAARGp1bWRjYm9yABEAEIAAAKoAOJtxE2MycGEuaW5ncmVkaWVudC52MwAAAAAYYzJzaJojvPTFOF42crNfY97YCokAAABwY2JvcqNpZGM6Zm9ybWF0bWltYWdlL3N2Zyt4bWxqaW5zdGFuY2VJRHgseG1wOmlpZDpjY2ExZGJjNy1jYmEyLTRlNGEtODY0OS1iMTJhMzliYjAxYmZscmVsYXRpb25zaGlwaHBhcmVudE9mAAAB4mp1bWIAAABBanVtZGNib3IAEQAQgAAAqgA4m3ETYzJwYS5hY3Rpb25zLnYyAAAAABhjMnNoJxS8Yf6f6C10WDmW1aqzjgAAAZljYm9yomdhY3Rpb25zgqJmYWN0aW9ua2MycGEub3BlbmVkanBhcmFtZXRlcnOha2luZ3JlZGllbnRzgaJjdXJseC1zZWxmI2p1bWJmPWMycGEuYXNzZXJ0aW9ucy9jMnBhLmluZ3JlZGllbnQudjNkaGFzaFggBuhW2qXXmnSiyVm8oTqP6fpVhMJw786zLfvZbEIJS9CkZmFjdGlvbngdY29tLmFudGhyb3BpYy5jbGF1ZGUucHJvdmlkZWRqcGFyYW1ldGVyc6F4H2NvbS5hbnRocm9waWMub3JpZ2luLWNvbmZpZGVuY2VndW5rbm93bmtkZXNjcmlwdGlvbnhmQ2xhdWRlIHByb3ZpZGVkIHRoaXMgZmlsZSBhdCB0aGUgcmVxdWVzdCBvZiBhIHVzZXIgYW5kIG1heSBoYXZlIGNyZWF0ZWQgb3IgbW9kaWZpZWQgdGhlIGZpbGUgY29udGVudHMubXNvZnR3YXJlQWdlbnShZG5hbWVmQ2xhdWRlcmFsbEFjdGlvbnNJbmNsdWRlZPUAAADIanVtYgAAAEBqdW1kY2JvcgARABCAAACqADibcRNjMnBhLmhhc2guZGF0YQAAAAAYYzJzaMD34Tl0eDupggw8dQVlIPkAAACAY2JvcqVjYWxnZnNoYTI1NmNwYWRNAAAAAAAAAAAAAAAAAGRoYXNoWCD1byu5EGMc/YDqeXn7Ob9sk+vAP0YPiy5mUikuq+9+8mRuYW1lbmp1bWJmIG1hbmlmZXN0amV4Y2x1c2lvbnOBomVzdGFydBiYZmxlbmd0aBkeBAAAAj5qdW1iAAAAJ2p1bWRjMmNsABEAEIAAAKoAOJtxA2MycGEuY2xhaW0udjIAAAACD2Nib3KlY2FsZ2ZzaGEyNTZpc2lnbmF0dXJleE1zZWxmI2p1bWJmPS9jMnBhL3VybjpjMnBhOjExNzU0ZDVjLTIwZTgtNGQwNi05OTk0LWY1NDIwOTcyNDhjYS9jMnBhLnNpZ25hdHVyZWppbnN0YW5jZUlEeCx4bXA6aWlkOjM0MjA3MDE5LWY4NGEtNDE4Yi05OGJlLWQ5MjQ4N2Q5YzVjOXJjcmVhdGVkX2Fzc2VydGlvbnODomN1cmx4LXNlbGYjanVtYmY9YzJwYS5hc3NlcnRpb25zL2MycGEuaW5ncmVkaWVudC52M2RoYXNoWCAG6FbapdeadKLJWbyhOo/p+lWEwnDvzrMt+9lsQglL0KJjdXJseCpzZWxmI2p1bWJmPWMycGEuYXNzZXJ0aW9ucy9jMnBhLmFjdGlvbnMudjJkaGFzaFggxquvHmKdfxYff4V3URXPEm11wdTpcEcd/nNqoj9vldeiY3VybHgpc2VsZiNqdW1iZj1jMnBhLmFzc2VydGlvbnMvYzJwYS5oYXNoLmRhdGFkaGFzaFggKRuaong2t8GRs2tE63Z9Mw4NzVhXlHGeEosApoueK/N0Y2xhaW1fZ2VuZXJhdG9yX2luZm+jZG5hbWVvQW50aHJvcGljIEZpbGVzZ3ZlcnNpb25lMS4wLjBrc3BlY1ZlcnNpb25lMi40LjAAABA4anVtYgAAAChqdW1kYzJjcwARABCAAACqADibcQNjMnBhLnNpZ25hdHVyZQAAABAIY2JvctKEWQISogEmGCFZAgowggIGMIIBjaADAgECAhRA5aAK7sI50L64g/oGQgU9Z1UTADAKBggqhkjOPQQDAzBJMRcwFQYDVQQKEw5BbnRocm9waWMsIFBCQzEuMCwGA1UEAxMlQW50aHJvcGljIENvbnRlbnQgQ3JlZGVudGlhbHMgUm9vdCBDQTAeFw0yNjA4MDcxODQzNTZaFw0yODA4MDYxOTQzNTZaMEQxFzAVBgNVBAoTDkFudGhyb3BpYywgUEJDMSkwJwYDVQQDEyBBbnRocm9waWMgQ2xhdWRlIENvbnRlbnQgU2lnbmluZzBZMBMGByqGSM49AgEGCCqGSM49AwEHA0IABJh6CmvLUBgFFNU0vUKlOVtE6djd17L5SuwX0LemFisBM3dkd/3cyjxFA3Qo5S46fX0/ihY0VZ7mfb9KF703t5OjWDBWMA4GA1UdDwEB/wQEAwIHgDAVBgNVHSUEDjAMBgorBgEEAYPoXgIBMAwGA1UdEwEB/wQCMAAwHwYDVR0jBBgwFoAUzlHiBIFOZFsj+OPEz5o+nMHXXMIwCgYIKoZIzj0EAwMDZwAwZAIwMXMdFJ4BetLLVY7ORuE9noqbbAZOZn/aArXyTwFAZfKrPzxF2vPoJNf1+UCdg1XGAjBwX1zd9WGqYkqmL5SFqw1QySjr1zJfpJM9+1rdDwSPLMOPOjKuiXjoU/pUUeG9RwmhY3BhZFkNngAAAAAAAAAAAAAAAAAAAAAAAAAAAAAAAAAAAAAAAAAAAAAAAAAAAAAAAAAAAAAAAAAAAAAAAAAAAAAAAAAAAAAAAAAAAAAAAAAAAAAAAAAAAAAAAAAAAAAAAAAAAAAAAAAAAAAAAAAAAAAAAAAAAAAAAAAAAAAAAAAAAAAAAAAAAAAAAAAAAAAAAAAAAAAAAAAAAAAAAAAAAAAAAAAAAAAAAAAAAAAAAAAAAAAAAAAAAAAAAAAAAAAAAAAAAAAAAAAAAAAAAAAAAAAAAAAAAAAAAAAAAAAAAAAAAAAAAAAAAAAAAAAAAAAAAAAAAAAAAAAAAAAAAAAAAAAAAAAAAAAAAAAAAAAAAAAAAAAAAAAAAAAAAAAAAAAAAAAAAAAAAAAAAAAAAAAAAAAAAAAAAAAAAAAAAAAAAAAAAAAAAAAAAAAAAAAAAAAAAAAAAAAAAAAAAAAAAAAAAAAAAAAAAAAAAAAAAAAAAAAAAAAAAAAAAAAAAAAAAAAAAAAAAAAAAAAAAAAAAAAAAAAAAAAAAAAAAAAAAAAAAAAAAAAAAAAAAAAAAAAAAAAAAAAAAAAAAAAAAAAAAAAAAAAAAAAAAAAAAAAAAAAAAAAAAAAAAAAAAAAAAAAAAAAAAAAAAAAAAAAAAAAAAAAAAAAAAAAAAAAAAAAAAAAAAAAAAAAAAAAAAAAAAAAAAAAAAAAAAAAAAAAAAAAAAAAAAAAAAAAAAAAAAAAAAAAAAAAAAAAAAAAAAAAAAAAAAAAAAAAAAAAAAAAAAAAAAAAAAAAAAAAAAAAAAAAAAAAAAAAAAAAAAAAAAAAAAAAAAAAAAAAAAAAAAAAAAAAAAAAAAAAAAAAAAAAAAAAAAAAAAAAAAAAAAAAAAAAAAAAAAAAAAAAAAAAAAAAAAAAAAAAAAAAAAAAAAAAAAAAAAAAAAAAAAAAAAAAAAAAAAAAAAAAAAAAAAAAAAAAAAAAAAAAAAAAAAAAAAAAAAAAAAAAAAAAAAAAAAAAAAAAAAAAAAAAAAAAAAAAAAAAAAAAAAAAAAAAAAAAAAAAAAAAAAAAAAAAAAAAAAAAAAAAAAAAAAAAAAAAAAAAAAAAAAAAAAAAAAAAAAAAAAAAAAAAAAAAAAAAAAAAAAAAAAAAAAAAAAAAAAAAAAAAAAAAAAAAAAAAAAAAAAAAAAAAAAAAAAAAAAAAAAAAAAAAAAAAAAAAAAAAAAAAAAAAAAAAAAAAAAAAAAAAAAAAAAAAAAAAAAAAAAAAAAAAAAAAAAAAAAAAAAAAAAAAAAAAAAAAAAAAAAAAAAAAAAAAAAAAAAAAAAAAAAAAAAAAAAAAAAAAAAAAAAAAAAAAAAAAAAAAAAAAAAAAAAAAAAAAAAAAAAAAAAAAAAAAAAAAAAAAAAAAAAAAAAAAAAAAAAAAAAAAAAAAAAAAAAAAAAAAAAAAAAAAAAAAAAAAAAAAAAAAAAAAAAAAAAAAAAAAAAAAAAAAAAAAAAAAAAAAAAAAAAAAAAAAAAAAAAAAAAAAAAAAAAAAAAAAAAAAAAAAAAAAAAAAAAAAAAAAAAAAAAAAAAAAAAAAAAAAAAAAAAAAAAAAAAAAAAAAAAAAAAAAAAAAAAAAAAAAAAAAAAAAAAAAAAAAAAAAAAAAAAAAAAAAAAAAAAAAAAAAAAAAAAAAAAAAAAAAAAAAAAAAAAAAAAAAAAAAAAAAAAAAAAAAAAAAAAAAAAAAAAAAAAAAAAAAAAAAAAAAAAAAAAAAAAAAAAAAAAAAAAAAAAAAAAAAAAAAAAAAAAAAAAAAAAAAAAAAAAAAAAAAAAAAAAAAAAAAAAAAAAAAAAAAAAAAAAAAAAAAAAAAAAAAAAAAAAAAAAAAAAAAAAAAAAAAAAAAAAAAAAAAAAAAAAAAAAAAAAAAAAAAAAAAAAAAAAAAAAAAAAAAAAAAAAAAAAAAAAAAAAAAAAAAAAAAAAAAAAAAAAAAAAAAAAAAAAAAAAAAAAAAAAAAAAAAAAAAAAAAAAAAAAAAAAAAAAAAAAAAAAAAAAAAAAAAAAAAAAAAAAAAAAAAAAAAAAAAAAAAAAAAAAAAAAAAAAAAAAAAAAAAAAAAAAAAAAAAAAAAAAAAAAAAAAAAAAAAAAAAAAAAAAAAAAAAAAAAAAAAAAAAAAAAAAAAAAAAAAAAAAAAAAAAAAAAAAAAAAAAAAAAAAAAAAAAAAAAAAAAAAAAAAAAAAAAAAAAAAAAAAAAAAAAAAAAAAAAAAAAAAAAAAAAAAAAAAAAAAAAAAAAAAAAAAAAAAAAAAAAAAAAAAAAAAAAAAAAAAAAAAAAAAAAAAAAAAAAAAAAAAAAAAAAAAAAAAAAAAAAAAAAAAAAAAAAAAAAAAAAAAAAAAAAAAAAAAAAAAAAAAAAAAAAAAAAAAAAAAAAAAAAAAAAAAAAAAAAAAAAAAAAAAAAAAAAAAAAAAAAAAAAAAAAAAAAAAAAAAAAAAAAAAAAAAAAAAAAAAAAAAAAAAAAAAAAAAAAAAAAAAAAAAAAAAAAAAAAAAAAAAAAAAAAAAAAAAAAAAAAAAAAAAAAAAAAAAAAAAAAAAAAAAAAAAAAAAAAAAAAAAAAAAAAAAAAAAAAAAAAAAAAAAAAAAAAAAAAAAAAAAAAAAAAAAAAAAAAAAAAAAAAAAAAAAAAAAAAAAAAAAAAAAAAAAAAAAAAAAAAAAAAAAAAAAAAAAAAAAAAAAAAAAAAAAAAAAAAAAAAAAAAAAAAAAAAAAAAAAAAAAAAAAAAAAAAAAAAAAAAAAAAAAAAAAAAAAAAAAAAAAAAAAAAAAAAAAAAAAAAAAAAAAAAAAAAAAAAAAAAAAAAAAAAAAAAAAAAAAAAAAAAAAAAAAAAAAAAAAAAAAAAAAAAAAAAAAAAAAAAAAAAAAAAAAAAAAAAAAAAAAAAAAAAAAAAAAAAAAAAAAAAAAAAAAAAAAAAAAAAAAAAAAAAAAAAAAAAAAAAAAAAAAAAAAAAAAAAAAAAAAAAAAAAAAAAAAAAAAAAAAAAAAAAAAAAAAAAAAAAAAAAAAAAAAAAAAAAAAAAAAAAAAAAAAAAAAAAAAAAAAAAAAAAAAAAAAAAAAAAAAAAAAAAAAAAAAAAAAAAAAAAAAAAAAAAAAAAAAAAAAAAAAAAAAAAAAAAAAAAAAAAAAAAAAAAAAAAAAAAAAAAAAAAAAAAAAAAAAAAAAAAAAAAAAAAAAAAAAAAAAAAAAAAAAAAAAAAAAAAAAAAAAAAAAAAAAAAAAAAAAAAAAAAAAAAAAAAAAAAAAAAAAAAAAAAAAAAAAAAAAAAAAAAAAAAAAAAAAAAAAAAAAAAAAAAAAAAAAAAAAAAAAAAAAAAAAAAAAAAAAAAAAAAAAAAAAAAAAAAAAAAAAAAAAAAAAAAAAAAAAAAAAAAAAAAAAAAAAAAAAAAAAAAAAAAAAAAAAAAAAAAAAAAAAAAAAAAAAAAAAAAAAAAAAAAAAAAAAAAAAAAAAAAAAAAAAAAAAAAAAAAAAAAAAAAAAAAAAAAAAAAAAAAAAAAAAAAAAAAAAAAAAAAAAAAAAAAAAAAAAAAAAAAAAAAAAAAAAAAAAAAAAAAAAAAAAAAAAAAAAAAAAAAAAAAAAAAAAAAAAAAAAAAAAAAAAAAAAAAAAAAAAAAAAAAAAAAAAAAAAAAAAAAAAAAAAAAAAAAAAAAAAAAAAAAAAAAAAAAAAAAAAAAAAAAAAAAAAAAAAAAAAAAAAAAAAAAAAAAAAAAAAAAAAAAAAAAAAAAAAAAAAAAAAAAAAAAAAAAAAAAAAAAAAAAAAAAAAAAAAAAAAAAAAAAAAAAAAAAAAAAAAAAAAAAAAAAAAAAAAAAAAAAAAAAAAAAAAAAAAAAAAAAAAAAAAAAAAAAAAAAAAAAAAAAAAAAAAAAAAAAAAAAAAAAAAAAAAAAAAAAAAAAAAAAAAAAAAAAAAAAAAAAAAAAAAAAAAAAAAAAAAAAAAAAAAAAAAAAAAAAAAAAAAAAAAAAAAAAAAAAAAAAAAAAAAAAAAAAAAAAAAAAAAAAAAAAAAAAAAAAAAAAAAAAAAAAAAAAAAAAAAAAAAAAAAAAAAAAAAAAAAAAAAAAAAAAAAAAAAAAAAAAAAAAAAAAAAAAAAAAAAAAAAAAAAAAAAAAAAAAAAAAAAAAAAAAAAAAAAAAAAAAAAAAAAAAAAAAAAAAAAAAAAAAAAAAAAAAAAAAAAAAAAAAAAAAAAAAAAAAAAAAAAAAAAAAAAAAAAAAAAAAAAAAAAAAAAAAAAAAAAAAAAAAAAAAAAAAAAAAAAAAAAAAAAAAAAAAAAAAAAAAAAAAAAAAAAAAAAAAAAAAAAAAAAAAAAAAAAAAAAAAAAAAAAAAAAAAAAAAAAAAAAAAAAAAAAAAAAAAAAAAAAAAAAAAAAAAAAAAAAAAAAAAAAAAAAAAAAAAAAAAAAAAAAAAAAAAAAAAAAAAAAAAAAAAAAAAAAAAAAAAAAAAAAAAAAAAAAAAAAAAAAAAAAAAAAAAAAAAAAAAAAAAAAAAAAAAAAAAAAAAAAAAAAAAAAAAAAAAAAAAAAAAAAAAAAAAAAAAAAAAAAAAAAAAAAAAAAAAAAAAAAAAAAAAAAAAAAAAAAAAAAAAAAAAAAAAAAAAAAAAAAAAAAAAAAAAAAAAAAAAAAAAAAAAAAAAAAAAAAAAAAAAAAAAAAPZYQP+h5r7PrZozbMGNTvvVr4ks/8FN4DWhMih7KcR9EzjeMU+leXvuIkzzmw9juC7Acb2KaF06XXOTHvN+4QDYu+8=</c2pa:manifest></metadata>
  <style>
    .bg   { fill: #FFF3E0; }
    .t    { font: 700 26px ui-sans-serif,-apple-system,"Segoe UI",sans-serif; fill: #24190f; letter-spacing: -.5px; }
    .c    { font: 600 19px ui-sans-serif,-apple-system,"Segoe UI",sans-serif; fill: #24190f; }
    .l    { font: 600 18px ui-sans-serif,-apple-system,"Segoe UI",sans-serif; fill: #7a6a5c; }
    .w    { font: 600 20px ui-sans-serif,-apple-system,"Segoe UI",sans-serif; fill: #fff; }
    .name { font: 700 46px ui-sans-serif,-apple-system,"Segoe UI",sans-serif; fill: #24190f; letter-spacing: -1px; }
    .sub  { font: 400 20px ui-sans-serif,-apple-system,"Segoe UI",sans-serif; fill: #7a6a5c; }
    .m    { mix-blend-mode: multiply; }
    @media (prefers-color-scheme: dark) {
      .bg { fill: #2A2119; }
      .t, .c { fill: #fff4e6; }
      .l, .sub { fill: #b8a898; }
      .name { fill: #fff4e6; }
    }
  </style>
  <view id="header" viewBox="0 0 640 180"/>
  <view id="pill-website" viewBox="0 204 640 52"/>
  <view id="pill-email" viewBox="0 280 640 52"/>
  <view id="pill-fsr" viewBox="0 356 640 52"/>
  <view id="h-about" viewBox="0 432 640 56"/>
  <view id="h-building" viewBox="0 512 640 56"/>
  <view id="h-smaller" viewBox="0 592 640 56"/>
  <view id="h-stack" viewBox="0 672 640 56"/>
  <view id="card-ditto" viewBox="0 752 640 84"/>
  <view id="card-gemwallet" viewBox="0 860 640 84"/>
  <view id="card-fichegen" viewBox="0 968 640 84"/>
  <view id="card-bluenet" viewBox="0 1076 640 64"/>
  <view id="card-agent-base" viewBox="0 1164 640 64"/>
  <view id="card-tether-compass" viewBox="0 1252 640 64"/>
  <view id="card-direct-moutamadris" viewBox="0 1340 640 64"/>
  <view id="stack" viewBox="0 1428 640 344"/>
  <view id="footer" viewBox="0 1796 640 70"/>
  <svg x="0" y="0" width="640" height="180" viewBox="0 0 640 180">
    <g transform="translate(0 0) scale(1)" style="isolation:isolate"><circle class="m" cx="60" cy="78" r="32" fill="#FFB627"/><circle class="m" cx="92" cy="78" r="32" fill="#F0542D"/><circle class="m" cx="76" cy="106" r="32" fill="#E64980"/></g>
    <g transform="translate(496 62) scale(0.6)" style="isolation:isolate"><circle class="m" cx="44" cy="44" r="44" fill="#FFB627"/><rect class="m" x="64" y="6" width="76" height="76" rx="22" fill="#F0542D"/><path class="m" d="M110 84 A44 44 0 0 1 198 84 Z" fill="#E64980"/></g>
    <text class="name" x="152" y="92">Walid Elonok</text>
    <text class="sub" x="154" y="124">@walsoup</text>
  </svg>
  <svg x="0" y="204" width="640" height="52" viewBox="0 0 640 52">
    <g transform="translate(199.0 0)">
    <g style="isolation:isolate"><circle class="m" cx="22" cy="22" r="22" fill="#FFB627"/><rect class="m" x="16" y="0" width="226" height="44" rx="22" fill="#F0542D"/></g>
    <text class="w" x="60" y="29">souphater.page</text>
    </g>
  </svg>
  <svg x="0" y="280" width="640" height="52" viewBox="0 0 640 52">
    <g transform="translate(165.0 0)">
    <g style="isolation:isolate"><path class="m" transform="scale(1.294)" d="M5 6 L30 17 L5 28 Z" fill="#FFB627" stroke="#FFB627" stroke-width="6" stroke-linejoin="round"/><rect class="m" x="16" y="0" width="294" height="44" rx="22" fill="#E64980"/></g>
    <text class="w" x="60" y="29">walidelonk@gmail.com</text>
    </g>
  </svg>
  <svg x="0" y="356" width="640" height="52" viewBox="0 0 640 52">
    <g transform="translate(188.0 0)">
    <g style="isolation:isolate"><rect class="m" x="6.5" y="6.5" width="31" height="31" rx="6.5" transform="rotate(45 22 22)" fill="#FFB627"/><rect class="m" x="16" y="0" width="248" height="44" rx="22" fill="#E07B00"/></g>
    <text class="w" x="60" y="29">cs student · fsr</text>
    </g>
  </svg>
  <svg x="0" y="432" width="640" height="56" viewBox="0 0 640 56">
    <g transform="translate(0 0) scale(1)" style="isolation:isolate"><circle class="m" cx="20" cy="28" r="14" fill="#FFB627"/><rect class="m" x="24" y="14" width="28" height="28" rx="9" fill="#F0542D"/><path class="m" d="M46 42 A14 14 0 0 1 74 42 Z" fill="#E64980"/></g>
    <text class="t" style="font-size:30px" x="92" y="39">about me</text>
  </svg>
  <svg x="0" y="512" width="640" height="56" viewBox="0 0 640 56">
    <g transform="translate(0 0) scale(1)" style="isolation:isolate"><circle class="m" cx="20" cy="28" r="14" fill="#F0542D"/><rect class="m" x="24" y="14" width="28" height="28" rx="9" fill="#E64980"/><path class="m" d="M46 42 A14 14 0 0 1 74 42 Z" fill="#FFB627"/></g>
    <text class="t" style="font-size:30px" x="92" y="39">what i&#8217;m building</text>
  </svg>
  <svg x="0" y="592" width="640" height="56" viewBox="0 0 640 56">
    <g transform="translate(0 0) scale(1)" style="isolation:isolate"><circle class="m" cx="20" cy="28" r="14" fill="#E64980"/><rect class="m" x="24" y="14" width="28" height="28" rx="9" fill="#FFB627"/><path class="m" d="M46 42 A14 14 0 0 1 74 42 Z" fill="#F0542D"/></g>
    <text class="t" style="font-size:30px" x="92" y="39">smaller stuff</text>
  </svg>
  <svg x="0" y="672" width="640" height="56" viewBox="0 0 640 56">
    <g transform="translate(0 0) scale(1)" style="isolation:isolate"><circle class="m" cx="20" cy="28" r="14" fill="#FFB627"/><rect class="m" x="24" y="14" width="28" height="28" rx="9" fill="#E64980"/><path class="m" d="M46 42 A14 14 0 0 1 74 42 Z" fill="#F0542D"/></g>
    <text class="t" style="font-size:30px" x="92" y="39">what i write in</text>
  </svg>
  <svg x="0" y="752" width="640" height="84" viewBox="0 0 640 84">
    <rect class="bg" width="640" height="84" rx="18"/>
    <g transform="translate(22 14.0) scale(0.875)" style="isolation:isolate"><rect class="m" x="2" y="18" width="22" height="28" rx="11" fill="#FFB627"/><rect class="m" x="18" y="6" width="22" height="52" rx="11" fill="#F0542D"/><rect class="m" x="34" y="14" width="22" height="36" rx="11" fill="#E64980"/></g>
    <text class="t" style="font-size:26px" x="96" y="51.1">ditto</text>
    <rect x="511" y="26.0" width="107" height="32" rx="16.0" fill="#2DA44E"/>
    <text class="w" style="font-size:17px" x="564.5" y="48.0" text-anchor="middle">finished</text>
  </svg>
  <svg x="0" y="860" width="640" height="84" viewBox="0 0 640 84">
    <rect class="bg" width="640" height="84" rx="18"/>
    <g transform="translate(22 14.0) scale(0.875)" style="isolation:isolate"><circle class="m" cx="26" cy="32" r="22" fill="#FFB627"/><rect class="m" x="22" y="12" width="36" height="36" rx="10" transform="rotate(45 40 30)" fill="#F0542D"/><path class="m" d="M10 54 A22 22 0 0 1 54 54 Z" fill="#E64980"/></g>
    <text class="t" style="font-size:26px" x="96" y="51.1">gemwallet</text>
    <rect x="482" y="26.0" width="136" height="32" rx="16.0" fill="#E07B00"/>
    <text class="w" style="font-size:17px" x="550.0" y="48.0" text-anchor="middle">mostly done</text>
  </svg>
  <svg x="0" y="968" width="640" height="84" viewBox="0 0 640 84">
    <rect class="bg" width="640" height="84" rx="18"/>
    <g transform="translate(22 14.0) scale(0.875)" style="isolation:isolate"><rect class="m" x="4" y="8" width="36" height="44" rx="8" fill="#FFB627"/><rect class="m" x="16" y="12" width="36" height="44" rx="8" transform="rotate(8 34 34)" fill="#F0542D"/><rect class="m" x="26" y="6" width="30" height="40" rx="8" transform="rotate(-6 41 26)" fill="#E64980"/></g>
    <text class="t" style="font-size:26px" x="96" y="51.1">fichegen (profstudio)</text>
    <rect x="442" y="26.0" width="176" height="32" rx="16.0" fill="#E64980"/>
    <text class="w" style="font-size:17px" x="530.0" y="48.0" text-anchor="middle">macos · windows</text>
  </svg>
  <svg x="0" y="1076" width="640" height="64" viewBox="0 0 640 64">
    <rect class="bg" width="640" height="64" rx="16"/>
    <g transform="translate(20 10.879999999999999) scale(0.66)" style="isolation:isolate"><circle class="m" cx="14" cy="32" r="16" fill="#FFB627"/><circle class="m" cx="32" cy="32" r="16" fill="#F0542D"/><circle class="m" cx="50" cy="32" r="16" fill="#E64980"/></g>
    <text class="t" style="font-size:22px" x="78" y="39.7">bluenet (bitnet)</text>
    <rect x="563" y="17.0" width="57" height="30" rx="15.0" fill="#E07B00"/>
    <text class="w" style="font-size:17px" x="591.5" y="38.0" text-anchor="middle">wip</text>
  </svg>
  <svg x="0" y="1164" width="640" height="64" viewBox="0 0 640 64">
    <rect class="bg" width="640" height="64" rx="16"/>
    <g transform="translate(20 10.879999999999999) scale(0.66)" style="isolation:isolate"><circle class="m" cx="24" cy="34" r="22" fill="#FFB627"/><path class="m" d="M24 56 V16 A40 40 0 0 1 64 56 Z" fill="#F0542D"/><circle class="m" cx="48" cy="20" r="12" fill="#E64980"/></g>
    <text class="t" style="font-size:22px" x="78" y="39.7">agent base</text>
    <rect x="563" y="17.0" width="57" height="30" rx="15.0" fill="#E07B00"/>
    <text class="w" style="font-size:17px" x="591.5" y="38.0" text-anchor="middle">wip</text>
  </svg>
  <svg x="0" y="1252" width="640" height="64" viewBox="0 0 640 64">
    <rect class="bg" width="640" height="64" rx="16"/>
    <g transform="translate(20 10.879999999999999) scale(0.66)" style="isolation:isolate"><path class="m" d="M30 10 A22 22 0 0 0 30 54 Z" fill="#FFB627"/><path class="m" d="M22 10 A22 22 0 0 1 22 54 Z" transform="translate(14 0)" fill="#F0542D"/><circle class="m" cx="32" cy="32" r="9" fill="#E64980"/></g>
    <text class="t" style="font-size:22px" x="78" y="39.7">tether compass</text>
    <rect x="523" y="17.0" width="97" height="30" rx="15.0" fill="#2DA44E"/>
    <text class="w" style="font-size:17px" x="571.5" y="38.0" text-anchor="middle">shipped</text>
  </svg>
  <svg x="0" y="1340" width="640" height="64" viewBox="0 0 640 64">
    <rect class="bg" width="640" height="64" rx="16"/>
    <g transform="translate(20 10.879999999999999) scale(0.66)" style="isolation:isolate"><rect class="m" x="4" y="10" width="40" height="40" rx="12" fill="#FFB627"/><circle class="m" cx="42" cy="40" r="18" fill="#F0542D"/><circle class="m" cx="50" cy="18" r="10" fill="#E64980"/></g>
    <text class="t" style="font-size:22px" x="78" y="39.7">direct moutamadris</text>
    <rect x="523" y="17.0" width="97" height="30" rx="15.0" fill="#2DA44E"/>
    <text class="w" style="font-size:17px" x="571.5" y="38.0" text-anchor="middle">shipped</text>
  </svg>
  <svg x="0" y="1428" width="640" height="344" viewBox="0 0 640 344">
    <g style="isolation:isolate"><circle class="m" cx="14" cy="19" r="12" fill="#FFB627"/><circle class="m" cx="28" cy="19" r="12" fill="#F0542D"/></g>
    <text class="l" x="48" y="25">languages</text>
    <g style="isolation:isolate">
      <rect class="m" x="0" y="44" width="104" height="40" rx="20" fill="#FFB627" fill-opacity=".6"/>
      <rect class="m" x="94" y="44" width="104" height="40" rx="20" fill="#F0542D" fill-opacity=".6"/>
      <rect class="m" x="188" y="44" width="148" height="40" rx="20" fill="#E64980" fill-opacity=".6"/>
      <rect class="m" x="326" y="44" width="148" height="40" rx="20" fill="#FFB627" fill-opacity=".6"/>
      <rect class="m" x="464" y="44" width="71" height="40" rx="20" fill="#F0542D" fill-opacity=".6"/>
      <rect class="m" x="525" y="44" width="82" height="40" rx="20" fill="#E64980" fill-opacity=".6"/>
    </g>
    <text class="c" x="52.0" y="70.5" text-anchor="middle">kotlin</text>
    <text class="c" x="146.0" y="70.5" text-anchor="middle">python</text>
    <text class="c" x="262.0" y="70.5" text-anchor="middle">typescript</text>
    <text class="c" x="400.0" y="70.5" text-anchor="middle">javascript</text>
    <text class="c" x="499.5" y="70.5" text-anchor="middle">c++</text>
    <text class="c" x="566.0" y="70.5" text-anchor="middle">rust</text>
    <g style="isolation:isolate"><rect class="m" x="2" y="110" width="22" height="22" rx="7" fill="#FFB627"/><rect class="m" x="13" y="114" width="22" height="22" rx="7" fill="#F0542D"/></g>
    <text class="l" x="48" y="129">environments</text>
    <g style="isolation:isolate">
      <rect class="m" x="0" y="148" width="115" height="40" rx="20" fill="#F0542D" fill-opacity=".6"/>
      <rect class="m" x="105" y="148" width="115" height="40" rx="20" fill="#E64980" fill-opacity=".6"/>
      <rect class="m" x="210" y="148" width="93" height="40" rx="20" fill="#FFB627" fill-opacity=".6"/>
      <rect class="m" x="293" y="148" width="93" height="40" rx="20" fill="#F0542D" fill-opacity=".6"/>
      <rect class="m" x="376" y="148" width="115" height="40" rx="20" fill="#E64980" fill-opacity=".6"/>
    </g>
    <text class="c" x="57.5" y="174.5" text-anchor="middle">android</text>
    <text class="c" x="162.5" y="174.5" text-anchor="middle">windows</text>
    <text class="c" x="256.5" y="174.5" text-anchor="middle">macos</text>
    <text class="c" x="339.5" y="174.5" text-anchor="middle">linux</text>
    <text class="c" x="433.5" y="174.5" text-anchor="middle">node.js</text>
    <g style="isolation:isolate"><circle class="m" cx="20" cy="227" r="14" fill="#FFB627"/><circle class="m" cx="20" cy="227" r="7" fill="#E64980"/></g>
    <text class="l" x="48" y="233">focus</text>
    <g style="isolation:isolate">
      <rect class="m" x="0" y="252" width="225" height="40" rx="20" fill="#E64980" fill-opacity=".6"/>
      <rect class="m" x="215" y="252" width="137" height="40" rx="20" fill="#FFB627" fill-opacity=".6"/>
      <rect class="m" x="342" y="252" width="203" height="40" rx="20" fill="#F0542D" fill-opacity=".6"/>
      <rect class="m" x="0" y="300" width="137" height="40" rx="20" fill="#E64980" fill-opacity=".6"/>
    </g>
    <text class="c" x="112.5" y="278.5" text-anchor="middle">offline protocols</text>
    <text class="c" x="283.5" y="278.5" text-anchor="middle">audio dsp</text>
    <text class="c" x="443.5" y="278.5" text-anchor="middle">agentic tooling</text>
    <text class="c" x="68.5" y="326.5" text-anchor="middle">mobile ux</text>
  </svg>
  <svg x="0" y="1796" width="640" height="70" viewBox="0 0 640 70">
    <g transform="translate(14 12.6) scale(0.8)" style="isolation:isolate"><circle class="m" cx="20" cy="28" r="14" fill="#FFB627"/><rect class="m" x="24" y="14" width="28" height="28" rx="9" fill="#F0542D"/><path class="m" d="M46 42 A14 14 0 0 1 74 42 Z" fill="#E64980"/></g>
    <g transform="translate(571 12.6) scale(0.8)" style="isolation:isolate"><circle class="m" cx="20" cy="28" r="14" fill="#E64980"/><rect class="m" x="24" y="14" width="28" height="28" rx="9" fill="#FFB627"/><path class="m" d="M46 42 A14 14 0 0 1 74 42 Z" fill="#F0542D"/></g>
    <text class="t" style="font-size:20px" x="320" y="42" text-anchor="middle">soup is just the best driving force :3</text>
  </svg>
</svg>
